<svg width="516" height="101" viewBox="0 0 516 101" fill="none" xmlns="http://www.w3.org/2000/svg">
<path fill-rule="evenodd" clip-rule="evenodd" d="M48.6182 5.00057C42.5316 5.72988 36.2325 7.77359 28.9032 11.9794C17.21 18.6893 8.5598 28.3279 5.68561 41.2695C11.9558 34.1848 17.7952 29.7012 23.4093 27.1223C30.3653 23.9268 36.8187 23.7274 43.0255 24.9108C48.2255 25.9023 53.367 27.903 58.4277 29.8723C60.0461 30.502 61.6562 31.1286 63.2574 31.7179C71.359 34.6997 82.1311 36.3312 93.1339 33.7979C102.813 31.5694 112.764 26.0991 121.315 15.306C107.275 19.1287 97.3247 17.7931 89.2649 14.9712C85.4776 13.6452 82.1195 11.9924 79.0588 10.4861C78.5136 10.2178 77.9778 9.95409 77.4508 9.69773C73.9096 7.97532 70.7696 6.5873 67.4979 6.02051C60.7223 4.84672 54.7252 4.26883 48.6182 5.00057ZM4.6224 48.4791C1.23123 83.4974 21.3757 98.5131 35.2259 96.9646C36.9143 95.4749 37.7076 94.0577 38.0384 92.7144C38.2874 91.7033 38.2998 90.6325 38.1268 89.4627C33.3029 90.0137 29.1679 88.0727 26.0228 84.6462C22.535 80.8464 20.2469 75.2343 19.2431 69.0692C17.957 61.1707 17.7087 53.6256 20.8333 46.2698C23.5203 39.9442 28.6068 33.974 37.1878 28.0551C33.2561 27.9341 29.2409 28.6213 24.9941 30.5722C18.9263 33.3596 12.2362 38.7954 4.6224 48.4791ZM43.0261 28.7825C47.6026 29.7399 52.0667 31.4758 56.7974 33.3153C58.4745 33.9674 60.1851 34.6326 61.9461 35.2807C70.5953 38.4641 82.127 40.228 93.9858 37.4976C105.895 34.7556 118.015 27.5052 127.771 12.872C128.844 11.2623 127.181 9.47103 125.575 10.0217C109.358 15.5813 98.765 14.2749 90.5194 11.3879C86.9666 10.144 83.8365 8.60457 80.7735 7.09813C80.218 6.82489 79.6646 6.55274 79.1114 6.28364C75.5631 4.55777 71.9975 2.94693 68.146 2.27971C61.2233 1.08044 54.8074 0.435302 48.1665 1.23101C41.5053 2.02917 34.7217 4.26338 27.0137 8.68646C13.6496 16.3551 3.63354 27.9154 1.3462 43.9269C1.17099 45.1534 1.0226 46.3604 0.900097 47.5478C-2.94003 84.7701 18.9369 103.157 36.2969 100.655C41.4509 99.9117 46.0935 97.2818 49.2453 92.7816C52.3886 88.2934 53.941 82.1048 53.2577 74.3998C52.9943 71.4292 52.0188 69.6173 51.3369 68.3505C51.2497 68.1885 51.1673 68.0354 51.0918 67.89C50.7665 67.2635 50.6366 66.907 50.6041 66.5627C50.5866 66.3768 50.5925 66.1307 50.6771 65.7863C51.3665 65.6693 52.041 65.5866 52.7022 65.5322C56.364 65.2306 59.6386 65.7721 63.0405 66.3347C63.9758 66.4894 64.9208 66.6457 65.8861 66.7865C70.2787 67.4271 74.8869 67.6814 79.8764 65.3111C84.8106 62.967 89.8523 58.1862 95.5168 49.3891C96.0487 48.563 95.8076 47.6518 95.3702 47.1344C94.9192 46.601 93.9771 46.1777 93.0262 46.6847C89.5814 48.5216 87.8136 48.8759 86.1948 48.6185C85.3294 48.4808 84.3912 48.1491 83.1646 47.5734C82.2228 47.1313 81.1923 46.5861 79.9443 45.9257C79.5435 45.7136 79.1202 45.4896 78.6702 45.2534C58.3759 34.5989 34.6966 50.2921 33.6574 71.0054C33.3684 74.2795 34.1506 77.3498 35.0887 80.1062C35.4388 81.1346 35.8258 82.1603 36.1948 83.1383C36.3198 83.4696 36.4427 83.7954 36.5614 84.114C36.7688 84.6704 36.9656 85.2106 37.1469 85.7381C33.9021 85.9372 31.1202 84.5852 28.8197 82.0789C25.9893 78.9952 23.9187 74.1609 22.9903 68.4591C21.7467 60.8219 21.6193 54.13 24.3277 47.7541C26.9817 41.506 32.4821 35.281 43.0261 28.7825ZM46.8133 66.7843C43.9562 67.779 40.8444 69.437 37.3966 72.1008C37.3421 74.3281 37.8909 76.5563 38.6828 78.8829C39.011 79.8473 39.366 80.7882 39.7288 81.7499C39.8581 82.0927 39.9885 82.4382 40.1189 82.7883C40.6054 84.0937 41.0845 85.4403 41.4398 86.7884C42.0122 88.9602 42.3029 91.275 41.7248 93.6222C41.6058 94.1053 41.4523 94.581 41.2625 95.0493C43.1497 93.984 44.8068 92.5009 46.1355 90.6037C48.6534 87.0085 50.0996 81.7664 49.476 74.7352C49.2836 72.5653 48.6442 71.3691 47.995 70.1545C47.9039 69.984 47.8125 69.8132 47.7222 69.6393C47.3477 68.9177 46.9286 68.0231 46.8244 66.9196C46.8202 66.8745 46.8165 66.8294 46.8133 66.7843ZM38.027 66.9874C43.2983 63.5295 48.0101 62.1092 52.3906 61.7485C56.5684 61.4044 60.4298 62.0472 63.8849 62.6223C64.7612 62.7682 65.6114 62.9098 66.434 63.0297C70.5834 63.6349 74.2798 63.7666 78.2473 61.8818C81.3852 60.3911 84.8548 57.559 88.8337 52.3405C87.7386 52.5281 86.6813 52.5401 85.5985 52.3679C84.2243 52.1493 82.9157 51.6505 81.5515 51.0102C80.5197 50.5259 79.3767 49.9209 78.1049 49.2478C77.7172 49.0427 77.3176 48.8312 76.9055 48.6148C60.6511 40.0813 41.6389 51.0141 38.027 66.9874Z" fill="white"/>
<path d="M152.905 28.6015V88.5932C174.234 88.5932 171.666 83.3212 171.666 71.5955V60.6516H188.082C193.553 60.6516 193.553 55.9613 193.553 52.8345C193.553 49.7077 194.335 45.0174 188.082 45.0174H171.666V28.6015C176.356 28.6015 182.61 27.8197 182.61 31.7283C182.61 35.6369 185.736 34.8551 190.427 34.8551C199.025 34.8551 199.025 34.8551 199.025 29.3832V20.0026C199.025 16.0941 197.462 12.9673 186.518 12.9673H149.778C145.087 12.9673 145.869 16.0941 145.869 20.7844C145.869 27.8197 147.433 28.6015 152.905 28.6015Z" fill="white"/>
<path fill-rule="evenodd" clip-rule="evenodd" d="M242.02 90.3565C263.822 90.1407 281.321 72.2915 281.105 50.4893C280.889 28.6871 263.04 11.188 241.238 11.4038C219.653 11.6175 202.366 28.9041 202.152 50.4893C201.934 72.5063 220.003 90.5745 242.02 90.3565ZM261.562 50.4893C261.339 39.0487 252.681 29.3832 241.238 29.3832C229.795 29.3832 221.114 39.0483 220.913 50.4893C220.706 62.362 230.154 72.8326 242.02 72.3772C253.47 71.9377 261.786 61.9462 261.562 50.4893Z" fill="white"/>
<path d="M288.922 28.6014V88.7931C307.683 88.7931 307.683 85.6663 307.683 76.2857V28.6014C320.972 28.6014 323.317 30.9466 323.317 37.982C323.317 46.8836 317.845 45.2028 311.592 49.7076C309.777 51.015 309.096 54.1366 309.74 57.6981C310.578 62.3355 315.5 61.4333 319.409 70.8138C323.789 81.3267 328.789 88.7931 335.825 88.7931C347.55 88.7931 347.55 80.1943 347.55 77.0675C347.55 73.9406 346.868 72.3772 343.642 72.3772C338.952 72.3772 339.733 62.215 331.916 57.6981C330.998 57.1677 331.184 56.254 331.916 55.9613C347.55 49.7076 349.896 12.9672 316.282 12.9672H288.14C283.45 12.9672 281.887 13.7489 281.887 20.7843C281.887 27.038 282.668 28.6014 288.922 28.6014Z" fill="white"/>
<path d="M354.598 88.6255C354.591 88.7161 354.663 88.7931 354.754 88.7931H363.966C373.347 88.7931 373.347 84.1028 373.347 77.8492C373.347 76.3854 374.6 59.7038 375.511 46.8098C375.571 45.9665 375.629 45.1395 375.685 44.3339C375.686 44.3162 375.712 44.314 375.716 44.3312C375.927 45.1737 376.141 45.9999 376.358 46.8098C387.374 87.9605 405.571 87.1372 415.535 44.34C415.539 44.3225 415.565 44.3203 415.566 44.3382C416.482 57.4649 417.904 77.0695 417.904 77.8492C417.904 86.448 419.468 88.7931 426.503 88.7931H437.277C437.369 88.7931 437.441 88.715 437.433 88.6239L431.205 13.1107C431.199 13.0296 431.131 12.9672 431.049 12.9672H411.758C411.693 12.9672 411.635 13.0071 411.612 13.0675L396.159 53.246C396.108 53.3784 395.921 53.38 395.868 53.2484L379.64 13.065C379.616 13.0059 379.559 12.9672 379.495 12.9672H360.203C360.121 12.9672 360.053 13.0306 360.047 13.1123L354.598 88.6255Z" fill="white"/>
<path fill-rule="evenodd" clip-rule="evenodd" d="M510.928 88.7931C516.4 88.7931 516.4 88.0114 514.055 80.976L489.044 12.9775C489.041 12.9713 489.036 12.9672 489.029 12.9672H469.508C469.502 12.9672 469.496 12.9714 469.494 12.9777L457.775 46.5703C457.773 46.5766 457.767 46.5808 457.76 46.5808C443.702 46.5799 446.045 45.0199 442.137 54.3979C438.88 62.215 437.447 66.1235 447.609 66.1235C454.496 66.1235 478.609 71.3665 494.289 87.7176C495.2 88.7017 496.075 88.7931 496.857 88.7931H510.928ZM485.046 56.3781C485.078 56.5133 484.93 56.6191 484.811 56.5467C480.899 54.155 478.529 52.9499 474.324 51.3239C474.248 51.2943 474.206 51.2103 474.23 51.1319L479.49 33.8487C479.537 33.6958 479.755 33.703 479.792 33.8587L485.046 56.3781Z" fill="white"/>
<path d="M442.949 88.7931C442.936 88.7931 442.929 88.779 442.936 88.7686C448.101 81.1357 444.495 69.2504 456.208 69.2504C461.68 69.2504 465.589 74.7223 465.589 78.6309C465.589 81.7577 465.589 88.7931 458.553 88.7931H442.949Z" fill="white"/>
</svg>
