<svg width="371" height="80" viewBox="0 0 371 80" fill="none" xmlns="http://www.w3.org/2000/svg">
<path d="M7.90456 17.6015V77.5932C29.2338 77.5932 26.6656 72.3212 26.6656 60.5955V49.6516H43.0815C48.5535 49.6516 48.5535 44.9613 48.5535 41.8345C48.5535 38.7077 49.3352 34.0174 43.0815 34.0174H26.6656V17.6015C31.3559 17.6015 37.6096 16.8197 37.6096 20.7283C37.6096 24.6369 40.7364 23.8551 45.4267 23.8551C54.0255 23.8551 54.0255 23.8551 54.0255 18.3832V9.00264C54.0255 5.09409 52.4621 1.96725 41.5181 1.96725H4.77772C0.0874591 1.96725 0.869169 5.09409 0.869169 9.78435C0.869169 16.8197 2.43259 17.6015 7.90456 17.6015Z" fill="white"/>
<path fill-rule="evenodd" clip-rule="evenodd" d="M97.0195 79.3565C118.822 79.1407 136.321 61.2915 136.105 39.4893C135.889 17.6871 118.04 0.187968 96.2378 0.403831C74.6526 0.617547 57.366 17.9041 57.1523 39.4893C56.9343 61.5063 75.0026 79.5745 97.0195 79.3565ZM116.562 39.4893C116.339 28.0487 107.681 18.3832 96.2378 18.3832C84.795 18.3832 76.1135 28.0483 75.9134 39.4893C75.7056 51.362 85.1538 61.8326 97.0195 61.3772C108.47 60.9377 116.786 50.9462 116.562 39.4893Z" fill="white"/>
<path d="M143.922 17.6014V77.7931C162.683 77.7931 162.683 74.6663 162.683 65.2857V17.6014C175.972 17.6014 178.317 19.9466 178.317 26.982C178.317 35.8836 172.845 34.2028 166.592 38.7076C164.777 40.015 164.096 43.1366 164.74 46.6981C165.578 51.3355 170.5 50.4333 174.409 59.8138C178.789 70.3267 183.789 77.7931 190.825 77.7931C202.55 77.7931 202.55 69.1943 202.55 66.0675C202.55 62.9406 201.868 61.3772 198.642 61.3772C193.952 61.3772 194.733 51.215 186.916 46.6981C185.998 46.1677 186.184 45.254 186.916 44.9613C202.55 38.7076 204.896 1.96723 171.282 1.96723H143.14C138.45 1.96723 136.887 2.74894 136.887 9.78433C136.887 16.038 137.668 17.6014 143.922 17.6014Z" fill="white"/>
<path d="M209.598 77.6255C209.591 77.7161 209.663 77.7931 209.754 77.7931H218.966C228.347 77.7931 228.347 73.1028 228.347 66.8492C228.347 65.3854 229.6 48.7038 230.511 35.8098C230.571 34.9665 230.629 34.1395 230.685 33.3339C230.686 33.3162 230.712 33.314 230.716 33.3312C230.927 34.1737 231.141 34.9999 231.358 35.8098C242.374 76.9605 260.571 76.1372 270.535 33.34C270.539 33.3225 270.565 33.3203 270.566 33.3382C271.482 46.4649 272.904 66.0695 272.904 66.8492C272.904 75.448 274.468 77.7931 281.503 77.7931H292.277C292.369 77.7931 292.441 77.715 292.433 77.6239L286.205 2.11073C286.199 2.02964 286.131 1.96723 286.049 1.96723H266.758C266.693 1.96723 266.635 2.00707 266.612 2.06745L251.159 42.246C251.108 42.3784 250.921 42.38 250.868 42.2484L234.64 2.06503C234.616 2.00593 234.559 1.96723 234.495 1.96723H215.203C215.121 1.96723 215.053 2.03055 215.047 2.11232L209.598 77.6255Z" fill="white"/>
<path fill-rule="evenodd" clip-rule="evenodd" d="M365.928 77.7931C371.4 77.7931 371.4 77.0114 369.055 69.976L344.044 1.97747C344.041 1.97132 344.036 1.96723 344.029 1.96723H324.508C324.502 1.96723 324.496 1.97144 324.494 1.97772L312.775 35.5703C312.773 35.5766 312.767 35.5808 312.76 35.5808C298.702 35.5799 301.045 34.0199 297.137 43.3979C293.88 51.215 292.447 55.1235 302.609 55.1235C309.496 55.1235 333.609 60.3665 349.289 76.7176C350.2 77.7017 351.075 77.7931 351.857 77.7931H365.928ZM340.046 45.3781C340.078 45.5133 339.93 45.6191 339.811 45.5467C335.899 43.155 333.529 41.9499 329.324 40.3239C329.248 40.2943 329.206 40.2103 329.23 40.1319L334.49 22.8487C334.537 22.6958 334.755 22.703 334.792 22.8587L340.046 45.3781Z" fill="white"/>
<path d="M297.949 77.7931C297.936 77.7931 297.929 77.779 297.936 77.7686C303.101 70.1357 299.495 58.2504 311.208 58.2504C316.68 58.2504 320.589 63.7223 320.589 67.6309C320.589 70.7577 320.589 77.7931 313.553 77.7931H297.949Z" fill="white"/>
</svg>
